<svg xmlns="http://www.w3.org/2000/svg" width="48" height="48" viewBox="0 0 48 48" fill="none">
  <rect width="48" height="48" rx="14" fill="url(#favicon-bg)"/>
  <path d="M14 32V16h4.2l5.8 9.4V16H28v16h-4.2l-5.8-9.4V32H14z" fill="white"/>
  <path d="M30 16h8.5c3.2 0 5.5 2.1 5.5 5.2 0 2.2-1.2 3.8-3.1 4.6L44 32h-4.8l-2.9-5.4H34V32H30V16zm4.4 7.6h2.8c1.1 0 1.8-.6 1.8-1.5s-.7-1.5-1.8-1.5h-2.8v3z" fill="white"/>
  <defs>
    <linearGradient id="favicon-bg" x1="4" y1="4" x2="44" y2="44" gradientUnits="userSpaceOnUse">
      <stop stop-color="#0f766e"/>
      <stop offset="1" stop-color="#0ea5e9"/>
    </linearGradient>
  </defs>
</svg>
