<svg xmlns="http://www.w3.org/2000/svg" width="48" height="48" viewBox="0 0 48 48" fill="none">
  <rect width="48" height="48" rx="14" fill="url(#favicon-bg)"/>
  <path d="M11 34V14h3.2l6.8 9.8V14h3.5v20h-3.5l-6.8-9.9V34H11z" fill="white"/>
  <path d="M28 15h9c3.5 0 5.8 1.8 5.8 4.5 0 2.3-1.2 3.8-3.6 4.7l-3.2 1c-2.8.9-4.5 2.3-4.5 4.6 0 2.8 2.2 4.7 6.2 4.7H43V31h-9.5c-3 0-4.8-1.4-4.8-3.4 0-1.7 1.3-2.8 3.8-3.5l3.5-1.1c2.9-.9 4.7-2.4 4.7-5.1 0-3.1-2.4-5.2-6.5-5.2H28V15z" fill="white"/>
  <defs>
    <linearGradient id="favicon-bg" x1="4" y1="4" x2="44" y2="44" gradientUnits="userSpaceOnUse">
      <stop stop-color="#0f766e"/>
      <stop offset="1" stop-color="#0ea5e9"/>
    </linearGradient>
  </defs>
</svg>
